<svg xmlns="http://www.w3.org/2000/svg" viewBox="0 0 220 120" role="img" aria-label="Parrot fish illustration">
  <g fill="none" stroke="none">
    <path d="M18 58c8-22 26-36 56-43 24-6 49-2 69 18 12 12 19 30 13 41-11 17-35 27-61 28-29 1-50-9-69-28-5-5-7-10-8-16z" fill="#8ad9f7"/>
    <path d="M65 26l-15-20 27 12-12 8z" fill="#dffcff" opacity="0.45"/>
    <path d="M20 58l-16 12 16 12c4-8 4-16 0-24z" fill="#2e93c3"/>
    <path d="M83 31l12-21 28 19-18 18-22-16z" fill="#6dd2ee"/>
    <path d="M81 75l12 21 10-22-22 1z" fill="#4ab8df"/>
    <path d="M122 73c12 6 24 10 38 11" stroke="#0b3d69" stroke-width="4" stroke-linecap="round" opacity="0.7"/>
    <path d="M78 51c10-3 21-3 32 2" stroke="#0b3d69" stroke-width="4" stroke-linecap="round" opacity="0.72"/>
    <path d="M108 62c10-6 19-10 31-10" stroke="#0b3d69" stroke-width="3.5" stroke-linecap="round" opacity="0.72"/>
    <circle cx="145" cy="58" r="4.2" fill="#0b3d69"/>
    <circle cx="145" cy="58" r="1.4" fill="#ecfeff"/>
  </g>
</svg>
