<svg xmlns="http://www.w3.org/2000/svg" viewBox="0 0 220 110" role="img" aria-label="Tuna fish illustration">
  <g fill="none" stroke="none">
    <path d="M16 58c19-29 49-42 83-39 22 2 42 15 58 35 4 5 7 11 9 17-15 10-36 17-62 20-22 2-43 0-64-11-8-5-14-12-24-22z" fill="#73d1f8"/>
    <path d="M43 31c27-17 61-26 96-21-15 9-29 17-41 25-11 8-24 17-38 23-7-9-11-17-17-27z" fill="#c4f3ff" opacity="0.42"/>
    <path d="M114 31l43-21 32 20-35 18-40 3z" fill="#4cb9df"/>
    <path d="M18 58l-15 10 15 9c8-7 11-14 0-19z" fill="#2f9bc7"/>
    <path d="M118 62c9 8 18 13 31 18-11 3-24 6-38 6-15 0-27-2-39-7 16-5 28-10 46-17z" fill="#0c4e82" opacity="0.42"/>
    <path d="M75 57c12-5 24-7 39-7" stroke="#0b3d69" stroke-width="4" stroke-linecap="round" opacity="0.72"/>
    <path d="M68 72c14 11 29 16 46 18" stroke="#0b3d69" stroke-width="3" stroke-linecap="round" opacity="0.66"/>
    <circle cx="146" cy="55" r="3.5" fill="#0b3d69"/>
    <circle cx="146" cy="55" r="1.3" fill="#e7fcff"/>
    <path d="M118 61c-11 4-21 7-34 8" stroke="#0b3d69" stroke-width="3" stroke-linecap="round" opacity="0.65"/>
  </g>
</svg>
